<svg width="332" height="467" viewBox="0 0 332 467" fill="none" xmlns="http://www.w3.org/2000/svg">
<path d="M139.312 5C156.107 5 172.901 5 190.204 5C190.37 26.1515 190.37 26.1515 190.419 32.8337C190.436 34.8079 190.436 34.8079 190.453 36.7821C190.46 37.6623 190.467 38.5426 190.473 39.423C190.482 40.7552 190.493 42.0875 190.505 43.4197C190.508 43.8128 190.51 44.206 190.512 44.611C190.516 44.9694 190.519 45.3278 190.523 45.697C190.526 46.009 190.528 46.3209 190.531 46.6423C190.56 47.5665 190.56 47.5665 190.963 48.7806C191.424 48.8551 191.885 48.9296 192.361 49.0064C193.758 49.233 195.155 49.465 196.552 49.699C198.122 49.9618 199.693 50.2098 201.266 50.448C216.333 52.8165 230.689 58.7056 243.373 68.4819C243.611 68.6651 243.849 68.8483 244.094 69.037C251.504 74.81 258.534 82.0272 264.262 89.9344C264.58 90.3667 264.898 90.799 265.226 91.2444C270.275 98.2294 274.666 105.955 278.314 114.014C278.501 114.422 278.501 114.422 278.692 114.839C283.251 124.831 286.694 135.302 288.924 146.302C289 146.671 289.075 147.041 289.153 147.421C289.739 150.491 289.872 153.265 290.087 156.481C270.912 156.481 251.736 156.481 231.98 156.481C231.604 153.447 231.228 150.413 230.841 147.287C229.229 141.514 226.923 137.16 223.245 132.839C223.02 132.57 222.795 132.3 222.564 132.022C214.899 123.557 202.747 120.11 192.513 119.363C191.723 119.267 191.723 119.267 190.204 118.83C190.204 144.257 190.204 169.685 190.204 195.883C194.089 196.172 197.974 196.461 201.977 196.759C217.912 197.99 233.108 201.989 247.551 209.893C247.819 210.038 248.087 210.183 248.364 210.333C254.294 213.554 259.893 217.436 265.021 222.152C265.539 222.622 265.539 222.622 266.067 223.103C271.157 227.81 276.065 232.969 280.113 238.881C280.948 240.101 280.948 240.101 281.843 241.159C285.256 245.408 287.293 250.646 289.492 255.794C289.989 256.948 290.499 258.09 291.021 259.229C293.29 264.278 294.378 269.59 295.404 275.126C295.506 275.631 295.506 275.631 295.61 276.147C297.658 286.355 297.319 298.644 295.404 308.837C295.328 309.249 295.253 309.661 295.175 310.085C292.292 325.413 286.231 339.64 277.554 351.742C277.372 351.997 277.19 352.251 277.002 352.513C273.779 356.986 270.378 361.096 266.54 364.877C266.149 365.272 265.759 365.669 265.368 366.065C262.449 369.013 259.438 371.752 256.271 374.338C255.733 374.777 255.197 375.221 254.663 375.667C252.314 377.607 249.888 379.297 247.361 380.911C246.956 381.172 246.551 381.432 246.133 381.7C233.617 389.665 233.617 389.665 227.422 392.021C226.969 392.229 226.516 392.438 226.049 392.653C214.852 397.805 202.239 400.777 190.204 400.777C190.204 417.68 190.204 434.584 190.204 452C173.41 452 156.615 452 139.312 452C139.312 435.53 139.312 419.059 139.312 402.09C136.179 402.09 133.046 402.09 129.818 402.09C128.019 401.952 126.281 401.803 124.501 401.543C123.854 401.452 123.854 401.452 123.194 401.359C109.276 399.301 95.6148 392.83 83.864 384.14C83.6003 383.946 83.3365 383.753 83.0648 383.553C75.7716 378.171 69.2606 371.721 62.9759 364.877C62.6909 364.567 62.406 364.257 62.1125 363.938C60.4228 362.048 58.9214 360.024 57.4556 357.901C56.8081 356.972 56.1558 356.071 55.4766 355.175C51.828 350.276 49.232 344.749 46.6451 339.046C46.4638 338.65 46.2825 338.253 46.0957 337.845C41.0093 326.59 38.0579 314.185 36.4384 301.668C36.3927 301.318 36.347 300.967 36.2999 300.606C36.0694 298.626 35.9922 296.693 36.0006 294.695C36.0021 294.226 36.0037 293.758 36.0052 293.275C36.0072 292.921 36.0092 292.566 36.0112 292.201C40.7799 292.143 45.5487 292.085 50.3175 292.03C52.5338 292.004 54.7502 291.977 56.9665 291.95C68.3381 291.811 79.7077 291.729 91.0799 291.763C91.1524 292.006 91.2248 292.249 91.2995 292.499C91.636 293.625 91.9743 294.749 92.3127 295.874C92.4835 296.447 92.4835 296.447 92.6578 297.031C94.8653 304.526 94.8653 304.526 98.5139 311.15C99.141 312.021 99.6466 312.943 100.171 313.9C102.441 317.831 105.645 320.548 108.93 323.285C109.137 323.458 109.344 323.631 109.557 323.809C118.523 331.168 128.566 332.907 139.312 333.792C139.312 307.787 139.312 281.781 139.312 254.987C137.683 254.843 136.054 254.698 134.375 254.549C133.254 254.39 132.143 254.222 131.027 254.024C130.734 253.974 130.441 253.924 130.14 253.872C129.201 253.709 128.263 253.541 127.326 253.373C127 253.314 126.674 253.256 126.338 253.196C111.421 250.5 96.9731 246.249 83.425 238.438C82.3743 237.834 81.3202 237.238 80.2657 236.643C64.7111 227.762 52.0233 212.713 44.7462 194.57C44.5484 194.087 44.3507 193.605 44.1469 193.108C37.3592 175.791 35.63 155.866 38.2899 137.217C38.3347 136.899 38.3795 136.58 38.4256 136.251C40.5505 122.194 48.4851 108.772 56.5195 98.2527C56.7477 97.9462 56.9758 97.6398 57.2109 97.3241C57.8582 96.457 58.5157 95.6022 59.178 94.7502C59.3369 94.545 59.4958 94.3398 59.6594 94.1284C62.3847 90.6208 65.2188 87.3432 68.2929 84.2429C68.4851 84.0478 68.6773 83.8528 68.8753 83.6518C79.6869 72.7292 91.7514 64.7984 105.132 58.8501C105.457 58.7045 105.782 58.5589 106.116 58.4089C116.572 53.8064 127.857 52.5963 138.933 51.8452C139.058 36.3863 139.183 20.9274 139.312 5ZM128.845 116.531C128.549 116.57 128.254 116.608 127.949 116.648C118.424 117.995 108.805 122.083 102.315 130.532C98.324 136.514 97.4004 142.77 97.3938 150.133C97.3845 150.682 97.3752 151.231 97.3656 151.797C97.3564 155.2 97.6905 157.829 99.0554 160.859C99.2478 161.287 99.4402 161.715 99.6384 162.155C101.435 165.429 103.568 168.153 105.891 170.928C106.154 171.259 106.417 171.59 106.688 171.931C113.556 180.351 125.717 184.928 135.515 185.376C136.768 185.376 138.021 185.376 139.312 185.376C139.312 162.549 139.312 139.722 139.312 116.203C134.054 116.132 134.054 116.132 128.845 116.531ZM190.583 264.619C190.055 265.838 190.157 266.829 190.158 268.193C190.157 268.769 190.157 269.344 190.156 269.938C190.158 270.58 190.159 271.222 190.16 271.864C190.161 272.537 190.161 273.21 190.16 273.883C190.16 275.713 190.162 277.544 190.165 279.375C190.167 281.287 190.168 283.198 190.168 285.11C190.169 288.732 190.172 292.354 190.176 295.976C190.18 300.099 190.183 304.222 190.184 308.345C190.188 316.827 190.195 325.31 190.204 333.792C191.689 333.808 193.174 333.817 194.659 333.825C195.072 333.829 195.486 333.834 195.912 333.838C208.929 333.891 223.489 330.049 233.119 319.345C238.704 311.856 238.819 303.885 238.436 294.39C237.899 286.642 234.313 280.962 229.535 275.896C222.553 269.091 213.76 266.157 204.802 265.221C204.305 265.167 203.808 265.112 203.296 265.056C200.43 264.751 197.563 264.478 194.69 264.291C194.254 264.261 194.254 264.261 193.81 264.231C192.607 264.166 191.737 264.176 190.583 264.619Z" fill="#9EBBBD"/>
</svg>
